<?xml version="1.0" encoding="UTF-8" standalone="no"?>
<!DOCTYPE svg PUBLIC "-//W3C//DTD SVG 1.1//EN" "http://www.w3.org/Graphics/SVG/1.1/DTD/svg11.dtd">
<svg width="512" height="512" viewBox="0 0 16 16" version="1.1" xmlns="http://www.w3.org/2000/svg" xmlns:xlink="http://www.w3.org/1999/xlink" xml:space="preserve" xmlns:serif="http://www.serif.com/" style="fill-rule:evenodd;clip-rule:evenodd;stroke-linecap:round;stroke-linejoin:round;stroke-miterlimit:1.5;">
  <defs>
    <symbol id="legs" fill="#2c3e50">
      <path d="M6.094,8C6.095,8.931 5.276,9.333 4.5,9.349C4.062,9.358 3.623,9.265 3.278,9.025C2.948,8.795 2.646,8.498 2.58,8C2.58,7.68 2.32,7.42 2,7.42C1.68,7.42 1.42,7.68 1.42,8C1.309,8.806 1.557,9.458 1.939,9.988C2.121,10.241 2.364,10.441 2.625,10.614C3.162,10.971 3.834,11.141 4.5,11.151C6.224,11.179 7.904,10.07 7.906,8C7.906,7.5 7.5,7.094 7,7.094C6.5,7.094 6.094,7.5 6.094,8Z"/>
      
      <path d="M8.094,8C8.095,9.578 7.754,10.797 7.135,11.671C6.783,12.169 6.343,12.544 5.823,12.821C5.283,13.108 4.694,13.342 4,13.42C3.68,13.42 3.42,13.68 3.42,14C3.42,14.32 3.68,14.58 4,14.58C4.906,14.682 5.741,14.604 6.492,14.334C7.33,14.034 8.03,13.471 8.588,12.738C9.429,11.633 9.904,10.046 9.906,8C9.906,7.5 9.5,7.094 9,7.094C8.5,7.094 8.094,7.5 8.094,8Z"/>

      <path d="M7.094,8C7.092,9.017 6.821,9.736 6.212,10.215C5.746,10.581 5.114,10.793 4.331,10.981C3.651,11.144 2.893,11.321 2,11.42C1.68,11.42 1.42,11.68 1.42,12C1.42,12.32 1.68,12.58 2,12.58C2.658,12.663 3.254,12.717 3.815,12.717C4.096,12.717 4.362,12.697 4.617,12.667C5.754,12.531 6.652,12.169 7.324,11.663C8.361,10.884 8.91,9.702 8.906,8C8.906,7.5 8.5,7.094 8,7.094C7.5,7.094 7.094,7.5 7.094,8Z"/>
    </symbol>
  </defs>
  <use xlink:href="#bird" x="15" y="15"/>

  <g transform="matrix(1,0,0,1.125,0,-0.125)" style="fill:#2c3e50;stroke:#2c3e50;stroke-width:1px;">
    <path d="M8,1C10.208,1 12,3.681 12,5.889C12,8.097 10.208,9.222 8,9.222C5.792,9.222 4,8.097 4,5.889C4,3.681 5.792,1 8,1Z"/>
  </g>

  <use xlink:href="#legs" x="-1" y="0"/>
  <use xlink:href="#legs" x="-17" y="0" transform="scale(-1,1)"/>

  <path d="M8.061,6.305C7.947,6.291 5.682,5.56 5.682,5.56L9.022,1.011C9.022,1.011 8.163,3.911 8.091,4.298C8.158,4.321 10.147,5.185 10.147,5.185L7.022,9.013C7.022,9.013 7.95,6.693 8.061,6.305Z" style="fill:rgb(255,183,0);"/>

  <g fill="white">
    <circle cx="5.5" cy="9.5" r="0.5"/>
    <circle cx="10.5" cy="9.5" r="0.5"/>
  </g>
</svg>
